<svg id="Capa_1" data-name="Capa 1" xmlns="http://www.w3.org/2000/svg" viewBox="0 0 512 512"><defs><style>.cls-1{fill:#848484;}.cls-2{fill:#fff;}.cls-3{fill:#80858a;}</style></defs><title>calendario</title><path class="cls-1" d="M15.06,464.34v-336a8.42,8.42,0,0,0,.79-1.77c6.31-33.16,31.58-54.18,65.21-54.23,6.27,0,12.54,0,19.25,0,0-12.66.43-24.77-.11-36.85C99.61,22.3,104.29,13,117.06,8.34h31c12.58,4.94,17.25,14.27,16.39,27.52-.68,10.45-.14,21-.14,31.48V72h213.5v-5.7q0-18.24,0-36.49a20.54,20.54,0,0,1,9.35-17.79,67.93,67.93,0,0,1,6.89-3.71h31c12.76,4.63,17.46,14,16.87,27.16-.54,12.07-.12,24.19-.12,36.85,7.56,0,14.66-.06,21.76,0a64.26,64.26,0,0,1,61.19,46.91c.84,3,1.54,6,2.3,9.07v336a25.49,25.49,0,0,0-.94,2.75c-5.32,26-20.78,42.88-46,50.93-3,.94-6.05,1.55-9.08,2.32h-400a11.48,11.48,0,0,0-2.25-.87c-19.71-3.47-35-13.69-44.76-31.07C19.91,481,18,472.4,15.06,464.34ZM484.31,222.8H58.11c-.11,1.47-.28,2.61-.28,3.75q0,114.51,0,229c0,13.42,8.81,22,22.46,22q190.76.06,381.5-.09a26.29,26.29,0,0,0,11.88-2.91c8.19-4.38,10.7-12,10.69-21q-.18-112.76-.07-225.5Z" transform="translate(-15.06 -8.34)"/><path class="cls-2" d="M484.31,222.8v5.25q0,112.76.07,225.5c0,9-2.5,16.63-10.69,21a26.29,26.29,0,0,1-11.88,2.91q-190.76.21-381.5.09c-13.65,0-22.44-8.59-22.46-22q-.1-114.49,0-229c0-1.14.17-2.28.28-3.75Z" transform="translate(-15.06 -8.34)"/><path class="cls-3" d="M202.83,441.34l50.72-93.14-46.08-85.81h34.62l29.08,53.53,29.22-53.53h34.27L288.59,348l50.71,93.35H303.57L271,380.68l-32.64,60.66Z" transform="translate(-15.06 -8.34)"/></svg>