<svg xmlns="http://www.w3.org/2000/svg" viewBox="0 0 2200 2200"><defs><style>.cls-1{fill:#fff;}</style></defs><title>redes-sociales-logos</title><g id="objects"><path class="cls-1" d="M1368.7,618H815.59c-109,0-197.54,88.5-197.54,197.54v553.11c0,109,88.5,197.55,197.54,197.55H1368.7c109,0,197.54-88.5,197.54-197.55V815.58C1566.24,706.54,1477.75,618,1368.7,618Zm-276,770.41c-163.57,0-296.32-132.75-296.32-296.31s132.75-296.31,296.32-296.31S1389,928.57,1389,1092.14,1256.27,1388.45,1092.71,1388.45Zm316.06-553.12A59.26,59.26,0,1,1,1468,776.07,59.32,59.32,0,0,1,1408.77,835.33Z"/><circle class="cls-1" cx="1092.71" cy="1092.14" r="197.54" transform="translate(-452.21 1092.54) rotate(-45)"/><path class="cls-1" d="M1092.15,0h0C489,0,0,489,0,1092.14H0c0,603.17,489,1092.14,1092.14,1092.14h0c603.17,0,1092.14-489,1092.14-1092.14h0C2184.29,489,1695.32,0,1092.15,0ZM1665,1388.45c0,152.7-123.85,276.56-276.55,276.56H795.83c-152.69,0-276.55-123.86-276.55-276.56V795.83c0-152.7,123.86-276.56,276.55-276.56h592.63c152.7,0,276.55,123.86,276.55,276.56Z"/></g></svg>