<svg id="Capa_1" data-name="Capa 1" xmlns="http://www.w3.org/2000/svg" viewBox="0 0 624 612"><defs><style>.cls-1{fill:#fff;}</style></defs><title>flores-experiencias</title><path class="cls-1" d="M41.75,78.11c6.33-1.39,12.61-3.09,19-4.13,11.86-1.92,23.45-.28,36,4.37-2.25-10.64-4.29-20.33-6.35-30,16.52-8,41.67-7.24,61,11.73,7-5,13.53-10.72,21-14.65S188.24,39.3,197.25,36c0,7.49.12,13.64,0,19.77-.4,16.69,5.5,30.61,16.58,43.14a56.6,56.6,0,0,1,11.55,20.87c6,20.42-3.41,41.73-22,52.25a162.8,162.8,0,0,1-14.58,7.33c-2.77,1.22-3.39,2.58-2.93,5.61,2.47,16.49,4.64,33,7,50l-12.94,3.9c2.52,7.13,5.1,14,7.38,20.91a451.51,451.51,0,0,1,21.66,178.88c-.62,7.75,1.54,15.73,2.56,24.94,5.68-4.37,8.36-7.72,8.84-13.48,4.42-53,18-103.36,45.19-150-1.24-1.15-2.52-2.3-3.76-3.5-23.6-22.89-31.41-50.19-22-81.81,4.25-14.27,9.69-28.18,15-43.53l30.1,14.34c3.24-3.93,6.95-8.81,11-13.34,10.48-11.59,22.19-21.49,37.18-27,3.77-1.39,5.65-.45,7.6,2.78,8.56,14.12,11.19,29.78,12.32,45.86.1,1.4.1,2.81.2,4.22a1.68,1.68,0,0,0,.3.67H392l-17.11,48.91c-3,8.62-6,17.25-9.06,25.85-12.45,35-48.19,50.91-82.47,36.78-.8-.33-1.62-.62-2.4-.92-16.37,18.76-42.12,97.84-41.54,128.11,1.47-1.12,2.7-2,3.82-2.94q31.32-27.11,62.61-54.25c.53-.46,1.05-1,1.6-1.39,4.12-3.28,8.61-3.48,12-.54s4,7.29,1.12,11.9c-9.81,15.43-20,30.62-29.55,46.2-10.1,16.46-20.64,32.76-29.2,50-11,22.08-15.86,46-17.05,71.19H388.6c-.78-2.51-1.39-4.85-2.21-7.11a192.82,192.82,0,0,0-67-90.07c-3.38-2.53-6.74-5.09-10.12-7.61s-4.88-6-3.51-10.19c1.3-4,4.4-5.54,8.48-5.91,37.52-3.36,70,8.05,97.74,33.29,1.29,1.17,2.53,2.38,5.05,4.75.89-9.29,2.15-17.34,2.35-25.42a129.28,129.28,0,0,0-8.74-50.06c-1.68-4.36-2.65-8.56,1.32-12.13,4.15-3.73,8.57-2.53,12.6.17,9.26,6.22,18.38,12.65,27.52,19V367.55c-8.35,0-16.72,0-25.09,0a58.41,58.41,0,0,1-38.12-13.09c-17.66-14.26-24.51-33.1-22.84-55.31,17.89,0,35.47-.78,52.93.28,11.71.71,17.18,4.64,33,16.22V246.31c-4,0-8.11-.13-12.24,0-2.92.13-3.91-1-4.24-3.9-1.68-14.85-3.71-29.65-5.32-44.51-.47-4.31-2.06-6.37-6.52-6.88a96.84,96.84,0,0,1-13.91-2.9c-29.13-7.7-43.61-38.79-30.38-65.93C385,110.64,389.69,99,387.62,85.88c-1.25-8-3.55-15.75-5.38-23.62q-.66-2.8-1.34-5.61c14.14-3.13,29.18.45,52.91,12.75.56-10.29,1.1-20.17,1.66-30.5,24.68-2.06,43.44,7.18,56.32,28.64,15-9.94,31.47-12.87,49.41-11.31-1.56,6.44-2.78,12.8-4.65,19-4.7,15.51-2.83,30.16,4.86,44.3,6.32,11.63,8.09,23.92,4.14,36.68-5.06,16.36-15.94,27-32.39,31.75-6.57,1.87-13.34,3-20.4,4.59-2.24,17.65-4.49,35.38-6.82,53.77h-16v34.8c1.33-1,2.41-1.7,3.39-2.52,11.32-9.48,24.26-14.69,39.12-14.74,14.38-.05,28.76,0,43,0,5.95,32.58-20.2,66-53.51,68.7-8.58.69-17.23.35-25.85.47-1.9,0-3.8,0-6.54,0v6.58c0,28.5-.12,57,.13,85.49,0,4.2,1.47,8.49,2.86,12.53,2,5.8,4.54,11.41,7,17.36a4.6,4.6,0,0,0,1.51-.64q42.15-36.78,84.24-73.61c7.18-6.27,11.39-5.9,17,1.44v5.28c-15.1,23.51-30.13,47.07-45.32,70.52-14.4,22.25-24.41,46.26-29.16,72.34-1.65,9-2.41,18.25-3.66,28.13h43V575h-467V558.28h48.76c-.79-2.71-1.26-4.7-2-6.62A199.1,199.1,0,0,0,101,502.39C87.2,483.16,69.88,467.6,50.69,454c-3.68-2.62-6.33-5.69-5-10.6s5-6.17,9.64-6.57c33.68-2.91,63.54,6.55,89.94,27.44,1.16.91,2.37,1.76,3.75,2.79,3.84-20.22,1.42-44.59-6.52-66.41-1.73-4.76-3.56-9.54,1.22-13.53s9.16-1.38,13.57,1.08a111.43,111.43,0,0,1,31.49,26.11c1,1.22,2.08,2.39,3.8,4.35a429.85,429.85,0,0,0-29.76-175.29L144.66,248c-3.48-8.56-6.89-17-10.34-25.41s-6.9-16.76-10.25-24.86c-6.29.31-11.9.7-17.51.84-33.12.82-55.42-26.08-48.39-58.52,2.56-11.79,3.11-23.54-2-34.63-4.19-9-9.55-17.53-14.39-26.26ZM452.37,56.93c-.31,2.2-.46,4.09-.84,5.94-2.83,13.71-4.87,27.66-8.81,41.05-3.45,11.72-9,22.82-13.69,34.17-8,19.5,3.88,38.11,25,39,3.86.16,7.74-.05,11.6.11,20.88.89,34.4-16.74,28.91-37.52-5.1-19.33-10.24-38.67-15.89-57.86C474.83,68.9,465.79,60.85,452.37,56.93ZM111.82,61c1,11.09,3.05,21.44,2.63,31.69-.73,17.51-2.5,35-4.77,52.41-2.65,20.32,13.77,36,33.67,31.33,4.44-1.05,8.88-2.16,13.25-3.44,18.85-5.51,27.21-23.19,18-40.63-10.12-19.07-21.21-37.67-32.7-56C135.21,65.8,124.57,61,111.82,61ZM368,215.6c-20.75-.45-44.68,11.5-59.38,28.54-10.75,12.47-15.82,27.58-20.74,42.77-1.45,4.45.95,7.19,5.26,8.78,20.51,7.57,44.72-1.28,53.42-21.45C354.71,255.31,360.8,235.47,368,215.6Zm78.11,342.5a24.42,24.42,0,0,0-.91-2.46c-8.95-16.72-17.49-33.68-27-50.1a99.82,99.82,0,0,0-49-43.08c-8.77-3.65-18.15-5.84-27.25-8.69l-1,1.77A212.5,212.5,0,0,1,407.07,558.1ZM271.51,434c-48.59,35.1-85,88.2-85.48,123.91h41.3a222.09,222.09,0,0,1,12.91-65C247.84,471.8,259.41,452.81,271.51,434ZM81.19,453.47c.55,2.13.54,2.54.74,2.74.73.75,1.54,1.43,2.33,2.13a211.24,211.24,0,0,1,58.39,85.71c1.78,4.79,2.74,11.38,6.29,13.6,3.79,2.38,10.22.82,15.46.43,1.41-.11,3.43-2,3.86-3.47,1.76-6.05,3.14-12.22,4.38-18.4a8.84,8.84,0,0,0-.56-5.39c-4.42-8.57-8.83-17.18-13.76-25.46-11.47-19.27-27.51-33.72-48.11-42.55C101.2,459,91.5,456.73,81.19,453.47Zm406,104.77C489,511.77,505.33,471,531.51,433.69c-11.74,9.39-23.07,18.85-33.92,28.84A168.51,168.51,0,0,0,453.64,528a9,9,0,0,0,0,6.33c3.43,7.11,7.22,14.06,11.16,20.91a6.28,6.28,0,0,0,4.24,2.86C474.8,558.44,480.6,558.24,487.2,558.24ZM265,194.8c-3.08,8.84-6.12,17.2-8.9,25.64a60,60,0,0,0,15,61c.57-1.4.92-2.14,1.18-2.91,5.25-15.69,10.89-31.17,21.81-44.07a4.72,4.72,0,0,0,.72-3.82C289.74,214.93,280,203.05,265,194.8ZM165.42,414.91a17.7,17.7,0,0,0-.11,2.69,149.56,149.56,0,0,1-.82,62.73,5.24,5.24,0,0,0,.25,3.52c5.62,9,11.38,17.88,16.93,26.52,5-8.62,10.12-17.39,15.11-26.24a6.78,6.78,0,0,0,.76-4c-.83-5.9-1.44-11.88-2.91-17.64C189.88,444.05,180.28,428.45,165.42,414.91ZM441.17,510.8c5.39-9.25,9.39-19.23,16.08-26.83,8.84-10,7.68-19.62,3.24-30.3-.34-.81-.6-1.65-.93-2.46-5.7-14-13.93-26.19-25.64-36.16-.21.56-.34.73-.31.86a160.35,160.35,0,0,1-2.7,73.5,5.84,5.84,0,0,0,.31,3.92C434.39,499.18,437.78,504.91,441.17,510.8ZM414.43,171.17c-8.11-15.84-5.92-30.62.93-45.55,4.89-10.65,8.73-21.78,12.86-32.76.52-1.37.57-3.81-.27-4.67a47.4,47.4,0,0,0-24.29-13.45,43.87,43.87,0,0,1,.44,4.7c-.22,9.75.52,19.66-1.09,29.18-1.25,7.4-5.29,14.38-8.4,21.41C387,147.26,396,167.05,414.43,171.17ZM69.14,90.81c8.83,26.94,8.83,26.94,5.31,56.4-2.25,18.82,11.27,34.66,29.09,34a4.21,4.21,0,0,0-.49-1.44c-10.16-12-12.36-25.77-9.86-41,2-12.1,3-24.36,4.18-36.58a6.76,6.76,0,0,0-2.64-5.38A44.65,44.65,0,0,0,69.14,90.81ZM537.7,281.11c-9.4,0-18.57-.65-27.61.14-18.47,1.62-31.23,11.4-37.9,28.82a49.4,49.4,0,0,0-1.42,5.51c9.86,0,19,.37,28.08-.08C517.61,314.57,534.21,299.91,537.7,281.11ZM451,349.49c-3-16-16.41-30.33-32.95-32.54-11-1.46-22.29-.28-33.4-.28,1.78,15.08,16.58,30.48,33.63,32.57C428.93,350.55,439.91,349.49,451,349.49Zm56.68-178.27a30.41,30.41,0,0,0,3.13-.59c16.09-5.8,23.69-23.71,16.93-39.71-3-7.09-6.39-14.08-8.68-21.4-3.53-11.22-2.84-22.78-1.08-34.94a108,108,0,0,0-17.39,8.23c-1.3.77-2.27,3.81-1.86,5.43,3.25,12.93,6.63,25.83,10.43,38.6C513.49,141.54,515.13,156.05,507.64,171.22ZM194.27,157c6.9-3.61,10.78-8.25,13.1-14,4.87-12.14,2.59-23.17-6.25-32.68-9.65-10.39-16.74-22.11-19.56-36.14-.85-4.21-1.26-8.5-2.1-14.4-5.52,4.93-10.18,9.06-14.81,13.2-2.15,1.92-2.26,3.74-.66,6.38,6.56,10.81,12.58,22,19.27,32.69C191.65,125.5,197.85,139.37,194.27,157Zm135.84,8.73c-13.94,8.83-24.19,20.17-32.63,32.79l11.87,19.78c8.17-4.37,16.21-8.6,24.17-13a4.47,4.47,0,0,0,2.15-3.09C335.83,190.08,334.71,178.09,330.11,165.76Zm-161.3,22-27,7.26c4.37,10.74,8.69,21.35,13.17,32.34l18.66-5Zm301.9,41.09c1.41-11.51,2.8-22.85,4.22-34.37H447l4.36,34.37Z"/><path class="cls-1" d="M582.25,575.33h-17V558.44h17Z"/><path class="cls-1" d="M62.5,558.54v16.52h-17V558.54Z"/></svg>