<svg id="Capa_1" data-name="Capa 1" xmlns="http://www.w3.org/2000/svg" viewBox="0 0 571.23 612"><defs><style>.cls-1{fill:#71141e;}</style></defs><title>planta</title><path class="cls-1" d="M541.62,223v7c-2.37,1.42-4.57,3.27-7.12,4.2a322.86,322.86,0,0,0-71.1,35.89c-25.95,17.6-48.47,38.56-63.22,66.77-2.79,5.34-4.95,11-7.68,17.13,16,0,30.8-.1,45.61,0,11,.1,21.19,6.88,22.53,17.54a136.67,136.67,0,0,1,0,36.7c-1.76,11.93-11.61,17.06-23.25,18a7.83,7.83,0,0,0-.56,1.55c-3.76,32.08-7.63,64.14-11.18,96.24-1.27,11.41-3.56,22.36-13.32,29.52-4.95,3.64-11.1,5.65-16.71,8.39h-220a7.55,7.55,0,0,0-1.65-.93c-15.37-4.33-24.62-14.33-26.68-30.16-3.16-24.27-5.82-48.61-8.7-72.92-1.25-10.54-2.53-21.09-3.78-31.5-18.07-2.93-25-11.15-25-29.25v-15c0-18.93,9.31-28.26,28.18-28.27h41c-.82-2.27-1.38-4-2-5.61a140.06,140.06,0,0,0-27.85-43.53c-30.44-32.93-68.39-54.11-109.78-70-3.6-1.39-6.52-4.55-9.76-6.88v-4c2.13-3.9,5.54-5.67,9.81-6.7q66-16.05,130.39,5.18c1.73.58,3.48,1.11,6.11,1.94-1.63-3.36-2.67-5.62-3.8-7.84a303.3,303.3,0,0,0-66.29-87.47c-3.23-3-5.17-6.24-3-10.56,2-4,5.47-4.93,9.68-4.38,32.44,4.17,62.82,14.36,90.78,31.39,8.21,5,16,10.63,24.28,16.13-.23-1.14-.37-2.1-.6-3a294.75,294.75,0,0,0-42-93.77c-4.7-7-4.1-10.27,2.7-14.88h6c.38.29.72.72,1.14.84,32.91,8.55,59.08,27.36,80.69,53.07,3.61,4.29,6.93,8.83,10.58,13.49,1.23-1.65,2.23-3,3.2-4.3A172.11,172.11,0,0,1,339,66.9c12.41-7.57,25.82-12.71,39.65-16.9h6c6.43,5,6.91,8.11,2.17,15.11a296.1,296.1,0,0,0-38.69,81.78c-1.4,4.68-2.54,9.43-4.11,15.29,1.95-1.3,2.79-1.79,3.56-2.38a228.49,228.49,0,0,1,108.93-45.17c5-.68,9.95-1.66,12.63,3.9s-1.16,8.93-4.82,12.31A302.22,302.22,0,0,0,400,216.14c-1.23,2.42-2.35,4.88-4,8.22,2.69-.8,4.25-1.21,5.78-1.72,43.46-14.51,87.41-16.24,131.79-4.78C536.5,218.61,539,221.24,541.62,223ZM151,426.27c1.59,13.61,3.11,26.67,4.63,39.73,2.42,20.67,4.72,41.36,7.29,62,1.41,11.27,8.82,17.94,19.71,18q103.23.07,206.46,0c10.88,0,18.3-6.52,19.64-17.33,3-24.46,5.88-48.93,8.77-73.41,1.13-9.54,2.19-19.09,3.31-29ZM285.59,410h150c7.6,0,10.22-2.6,10.28-10.14.05-6.67.06-13.33,0-20-.06-7-2.73-9.81-9.58-9.81q-150.21,0-300.4,0c-6.89,0-9.8,2.82-9.93,9.64-.11,6.16,0,12.33,0,18.49,0,9.51,2.32,11.82,11.76,11.82Zm3.53-56c-23.31-45.78-54.12-83.15-100-106-38-18.94-78.42-24.91-122-19.62,57.76,28,107.47,62.48,129,125.29h40a135.5,135.5,0,0,0-24.34-40.87c-3-3.53-6.48-6.73-9.43-10.33-2.81-3.43-2.53-7.13.43-10.41a7.91,7.91,0,0,1,10.85-.56,30.29,30.29,0,0,1,2.5,2.44,154.16,154.16,0,0,1,35.75,56c.6,1.62,2.56,3.87,3.95,3.91C266.58,354.13,277.39,354,289.12,354ZM504.65,228.52a192.56,192.56,0,0,0-47.4-1.3C386.65,234,334.14,269.41,297,328.91a6.51,6.51,0,0,0-.16,5.3c2.41,5.29,5.8,10.18,7.85,15.58,2.25,6,6.85,3.65,10.77,4.23s4.09-2.64,4.94-4.94a152.63,152.63,0,0,1,36-55.79c4.13-4.11,8.85-4.5,12.31-1.12s3.11,8-.92,12.34c-2.83,3.06-5.75,6-8.43,9.22A134.25,134.25,0,0,0,335.7,354c12.5,0,24.44-.1,36.38.08,3,0,4.33-.95,5.25-3.81,6.48-20.3,17.42-38.07,31.4-54,24.83-28.3,55.63-48.37,89.32-64.41C499.92,230.94,501.75,230,504.65,228.52Zm-369.83-94c1.49,1.88,2.05,2.68,2.7,3.4A350.71,350.71,0,0,1,197,231.57a11.3,11.3,0,0,0,4.27,4.47c8.63,5.64,17.52,10.89,26.06,16.67,5.17,3.49,9.86,7.68,15.69,12.29-1-2.56-1.51-4.08-2.15-5.54a183.86,183.86,0,0,0-32.54-50c-5.52-6.09-6.22-10.53-2.31-14.2,4.1-3.86,8.71-2.73,14.4,3.53,21.9,24.12,36.92,52.24,45.75,83.32,3.8,13.37,13.06,22.45,19.58,33.86,4.84-6.59,9.22-12.87,14-18.85,2-2.53,2.56-4.57,1.14-7.58-4.9-10.37-9.1-21.1-14.39-31.26C265,217,235.12,183.45,195,159.47A225,225,0,0,0,134.82,134.53Zm175.38,135c.42-.39.76-.58.88-.86.56-1.38,1.05-2.79,1.58-4.19,7.63-20.19,17.45-39.21,30.8-56.26a138.75,138.75,0,0,1,10.89-12.35c3.69-3.73,8.23-3.68,11.55-.41s3.27,7.28.15,11.22c-.83,1-1.76,2-2.65,3A172.85,172.85,0,0,0,333,256.91c-.81,1.85-1.4,3.79-1.73,4.68,13.38-8.61,27.24-17.43,41-26.46,1.49-1,2.52-3,3.27-4.74a333.87,333.87,0,0,1,36.72-64.52c7.66-10.43,15.9-20.44,23.85-30.61a2.21,2.21,0,0,0-.87-.12c-59.89,16.2-105.42,51.62-138.5,103.63a4.74,4.74,0,0,0-.2,4C300.9,251.68,305.54,260.51,310.2,269.55Zm-34.66-59.66a136.33,136.33,0,0,0-14-44.69c-2.82-5.55-1.67-10.09,2.85-12.34,4.34-2.16,8.86-.51,11.21,5,4.3,10.07,8.64,20.17,11.92,30.59,2.65,8.41,3.76,17.31,5.63,26.37,3.5-4.37,6.95-8.4,10-12.7a5.92,5.92,0,0,0,.47-4.51c-2.87-9.55-5.46-19.21-9.05-28.49-12.15-31.45-29.52-59.33-57.28-79.5-8.46-6.15-17.67-11.27-26.54-16.87L210,74a18.48,18.48,0,0,0,.76,1.77,335.84,335.84,0,0,1,37,101.76,8.4,8.4,0,0,0,1.89,3.92C258.07,190.81,266.61,200.12,275.54,209.89ZM318.87,186c1.82-3.26,4.75-6.48,5.48-10.14a344.56,344.56,0,0,1,29.57-86.58c2.48-5,5.13-9.89,8.09-15.59a15.41,15.41,0,0,0-2.59.62,151.72,151.72,0,0,0-62.67,56.32c-.75,1.19-.62,3.49,0,4.89C303.82,152,311.09,168.33,318.87,186Z"/><path class="cls-1" d="M397.84,502.07A27.9,27.9,0,0,1,370,530a28,28,0,0,1-.35-56A27.88,27.88,0,0,1,397.84,502.07Zm-16.07,0a11.79,11.79,0,0,0-11.88-12,12,12,0,0,0-.16,23.9A11.8,11.8,0,0,0,381.77,502.08Z"/><path class="cls-1" d="M198.62,280.79c0,7.31-6.41,11.34-11.66,8.24-10.13-6-20.1-12.22-30-18.59-3.68-2.37-4.45-6.08-2.57-10.07s6.27-5.85,10.05-3.65c10.59,6.15,21,12.68,31.22,19.37C197.36,277.19,198,279.83,198.62,280.79Z"/><path class="cls-1" d="M380.46,291c-2.2-1.94-5.54-3.53-6.31-5.94s0-7.2,1.75-8.43c10.38-7.15,21.11-13.85,32.08-20.06,3.72-2.11,7.51.09,9.56,4s.65,8-3.65,10.59c-6.28,3.76-12.68,7.31-18.94,11.11-2.83,1.72-5.37,3.93-8.17,5.72A60.75,60.75,0,0,1,380.46,291Z"/></svg>