<svg xmlns="http://www.w3.org/2000/svg" viewBox="0 0 2200 2200"><defs><style>.cls-1{fill:#fff;stroke:#fff;stroke-miterlimit:10;}</style></defs><title>redes-sociales-logos</title><g id="objects"><path class="cls-1" d="M702,830.07c-184.09.32-333.41,149.43-333.66,333.18-.26,184.15,150.36,335,334.17,334.73,183.64-.28,333.08-149.79,333.52-333.66C1036.44,979.89,886.39,829.74,702,830.07Zm0,559.8c-124.5-.19-226-102.42-225.57-227.13C476.88,1038.6,578.17,938,702.48,938.21A225.37,225.37,0,0,1,927.9,1164.82C927.38,1288.9,825.85,1390.05,702,1389.87Z"/><path class="cls-1" d="M1465.18,1033.19c-71.66.36-130.57,59.24-130.59,130.5,0,71.7,60.85,132.12,132,131,71.76-1.13,130.07-60.41,129.47-131.61C1595.45,1091.14,1536.7,1032.82,1465.18,1033.19Zm2.07,179.91c-27.25-.24-49.44-22.47-49.37-49.47.07-26.77,22.68-49.39,49.56-49.6,27.55-.21,50.59,23.12,50,50.58A49.41,49.41,0,0,1,1467.25,1213.1Z"/><path class="cls-1" d="M702.23,1033.19c-71.56,0-130.38,58.61-130.61,130.2-.23,72,59.92,132.12,131.44,131.28,71.77-.83,130-59.73,129.74-131.3C832.57,1091.63,774,1033.21,702.23,1033.19Zm-.4,179.91a49.52,49.52,0,0,1-49.34-49.39c0-26.88,22.43-49.44,49.36-49.67,27.44-.25,50.77,23.23,50.18,50.49A49.72,49.72,0,0,1,701.83,1213.1Z"/><path class="cls-1" d="M1387.42,741.67c-185.38-111.55-445.86-98.42-602.88,1,133.94,29.29,232.59,104.8,299.51,224.46C1152,845.28,1251.68,770.87,1387.42,741.67Z"/><path class="cls-1" d="M1466.86,830.06c-182.69-1.78-333.16,146.91-335.55,331.59-2.37,182.55,148.29,334.78,332.85,336.33,183.35,1.53,334.29-148.75,335.11-333.65C1800.08,980.89,1651.88,831.87,1466.86,830.06Zm-.82,559.81c-124,.52-226.86-102.23-226.65-226.35S1340.56,938.63,1465,938.21A225.25,225.25,0,0,1,1691.12,1164C1690.88,1288.44,1590.31,1389.35,1466,1389.87Z"/><path class="cls-1" d="M1100,0h0C492.49,0,0,492.49,0,1100H0c0,607.51,492.49,1100,1100,1100h0c607.51,0,1100-492.49,1100-1100h0C2200,492.49,1707.51,0,1100,0Zm707.11,905.31c94.26,130.18,114.5,271.72,54.56,420.44-53.9,133.73-154.53,220.13-294.82,254-146.45,35.31-277.51-.2-390.71-100-7.1-6.26-13.82-12.92-21.77-20.38L1084,1621.56c-24.11-55.31-46.9-107.61-70.4-161.5-4.34,3.66-7.91,6.31-11.06,9.38-82.8,80.5-182.48,122.82-297.36,122.92-139,.12-253.32-55.83-340.43-164.75-51.54-64.44-80.27-138.58-89.18-220.52-.39-3.61-1.6-7.12-2.44-10.68V1126.5c6.23-28.83,11.11-58,19-86.43,14.28-51.56,39.07-98.15,72.58-139.85,6.79-8.46,7-14.21,1.08-23.4-27-41.73-53.18-84.05-79.59-126.19-2.71-4.32-5.05-8.88-8.91-15.7h19.2c107,0,213.92.19,320.88-.38a40.11,40.11,0,0,0,23.83-8.68c102.45-86.61,221.36-134.93,353.44-152,135.48-17.53,265.85,2,390.18,58.7,50.75,23.16,97.72,52.85,138.86,90.89,8.75,8.09,17.3,11.81,29.38,11.76,108-.44,216-.26,324-.26h22c-4,7-6.6,11.9-9.52,16.56-27.55,43.92-54.94,87.94-83,131.56C1801.12,891.45,1801.09,897,1807.11,905.31Z"/></g></svg>