<svg xmlns="http://www.w3.org/2000/svg" viewBox="0 0 2200 2200"><defs><style>.cls-1{fill:#fff;}</style></defs><title>redes-sociales-logos</title><g id="objects"><path class="cls-1" d="M1100,0h0C492.49,0,0,492.49,0,1100H0c0,607.51,492.49,1100,1100,1100h0c607.51,0,1100-492.49,1100-1100h0C2200,492.49,1707.51,0,1100,0Zm523.25,925.84a21.22,21.22,0,0,1-21.63,21.24c-222.15-6.29-283.6-108.7-283.6-108.7v523.24c0,204.7-165.94,370.64-370.63,370.64-218.64,0-393.06-189.31-368.29-412.95,18.77-169.52,155.53-306.67,325-325.86a381.6,381.6,0,0,1,67.56-1.68c11,.71,19.32,10.18,19.32,21.17v154.43c0,12.84-11.27,22.35-24,20.92a178.77,178.77,0,0,0-44.62.67c-76.83,10.69-138.64,73.74-148,150.74-13.28,109,74.08,201.23,181.55,196.14,94-4.45,165.94-86.33,165.94-180.45V488.94a21.2,21.2,0,0,1,21.2-21.2h175.66c11.27,0,21.07,8.52,21.82,19.77,8,121.19,89.85,253.32,262.16,263.08,11.46.65,20.61,9.72,20.61,21.19Z"/></g></svg>