<svg xmlns="http://www.w3.org/2000/svg" viewBox="0 0 2200 2200"><defs><style>.cls-1{fill:#fff;}</style></defs><title>redes-sociales-logos</title><g id="objects"><path class="cls-1" d="M1100-3.32h0C490.65-3.32-3.32,490.65-3.32,1100h0c0,609.35,494,1103.32,1103.32,1103.32h0c609.35,0,1103.32-494,1103.32-1103.32h0C2203.32,490.65,1709.35-3.32,1100-3.32Zm326.89,1017.73L1408.51,1162a49.22,49.22,0,0,1-48.74,43.21H1120.7v617.13q-37.85,3.44-76.59,3.43A853.06,853.06,0,0,1,875.49,1809v-603.8H691.61A30.79,30.79,0,0,1,661,1174.45V989.76A30.79,30.79,0,0,1,691.61,959H875.49V682c0-170,137.23-307.77,306.52-307.77h214.53A30.79,30.79,0,0,1,1427.19,405V589.66a30.8,30.8,0,0,1-30.65,30.77H1243.28c-67.68,0-122.58,55.11-122.58,123.12V959h257.45A49.25,49.25,0,0,1,1426.89,1014.41Z"/></g></svg>